# xmcd CD database file
#
# Track frame offsets:
#	150
#	21425
#	54704
#	86563
#	113496
#	155909
#	178277
#	207916
#	249470
#	269549
#
# Disc length: 3845 seconds
#
# Revision: 1
# Processed by: cddbd v1.5.2PL0 Copyright (c) Steve Scherf et al.
# Submitted via: CDex 1.79
#
DISCID=900f030a
DTITLE=Takuya Kuroda - Rising Son
DYEAR=2014
DGENRE=Jazz
TTITLE0=Rising Son
TTITLE1=Afro Blues
TTITLE2=Piri Piri
TTITLE3=Mala
TTITLE4=Everybody Loves The Sunshine
TTITLE5=Green And Gold
TTITLE6=Sometime Somewhere Somehow
TTITLE7=Call
TTITLE8=Unchain
TTITLE9=Promise In Love
EXTD=YEAR: 2014
EXTT0=
EXTT1=
EXTT2=
EXTT3=
EXTT4=
EXTT5=
EXTT6=
EXTT7=
EXTT8=
EXTT9=
PLAYORDER=
